<svg version="1.1" xmlns="http://www.w3.org/2000/svg" xmlns:xlink="http://www.w3.org/1999/xlink" x="0px" y="0px"
	 width="396.747px" height="114.735px" viewBox="0 0 396.747 114.735" enable-background="new 0 0 396.747 114.735"
	 xml:space="preserve">
<g id="Layer_2">
</g>
<g id="Layer_1">
	<g>
		<path fill="#990000" d="M49.053,24.732H32.839c-9.206,0-16.213,1.924-21.159,5.771C4.259,36.274,0,46.58,0,58.671
			c0,10.856,3.298,19.924,9.207,25.557c5.77,5.497,12.091,7.42,24.87,7.42H64.58V0H49.053V24.732L49.053,24.732z M49.053,79.419
			H34.076c-12.229,0-18.138-7.007-18.138-21.709c0-13.878,6.458-20.748,19.237-20.748h13.877V79.419L49.053,79.419z"/>
		<path fill="#990000" d="M145.329,24.732H133.1v12.229h12.229v32.29c0,9.618,1.373,14.29,5.083,18
			c3.572,3.297,7.419,4.396,15.802,4.396h13.191V79.419h-7.557c-9.344,0-10.992-1.786-10.992-12.229V36.962h18.549V24.732h-18.549V0
			h-15.527V24.732L145.329,24.732z"/>
		<path d="M183.446,24.713v90.023h15.526V91.628h14.292c12.779,0,18.688-1.785,24.321-7.144c5.907-5.771,9.48-15.39,9.48-25.97
			c0-11.679-3.298-20.885-9.756-26.793c-5.908-5.358-11.404-7.008-24.32-7.008H183.446L183.446,24.713z M198.972,36.943h12.78
			c13.054,0,19.237,6.595,19.237,20.472c0,7.832-1.787,14.016-5.084,17.451c-2.748,3.022-7.833,4.533-14.842,4.533h-12.092V36.943
			L198.972,36.943z"/>
		<path d="M275.239,50.84c-7.694,0-12.64,0.686-15.802,2.198c-6.457,2.885-10.441,10.03-10.441,18.549
			c0,6.733,2.61,12.504,7.283,16.076c4.396,3.298,8.105,3.984,21.708,3.984h36.001V51.389c0-10.58-1.237-15.389-5.085-19.923
			c-4.397-5.221-9.48-6.733-23.496-6.733h-32.84v12.229h31.328c7.696,0,10.58,0.962,12.642,3.847
			c1.649,2.336,1.924,4.259,1.924,10.031H275.239L275.239,50.84z M298.46,63.068v16.351h-21.848c-8.382,0-11.679-2.197-11.679-7.969
			c0-3.71,1.65-6.458,4.397-7.557c1.649-0.688,3.161-0.825,7.282-0.825H298.46L298.46,63.068z"/>
		<path d="M362.056,79.419H345.98c-9.618,0-12.366-3.573-12.366-16.487V24.732h-15.526v37.099c0,13.191,0.825,17.175,4.672,21.985
			c4.672,5.634,10.718,7.831,21.71,7.831h17.587c-0.274,5.52-0.686,7.031-2.747,8.405c-1.787,1.512-3.848,1.786-10.58,1.786h-30.642
			v12.229h31.053c12.23,0,17.588-1.511,21.985-5.907c4.396-4.535,6.458-12.092,6.458-23.107v-60.32h-15.527V79.419L362.056,79.419z"
			/>
		<g>
			<path fill="none" d="M108.562,44.069c-0.273-0.283-0.577-0.414-0.905-0.415H95.893c-0.328,0.001-0.633,0.132-0.906,0.415
				c-0.267,0.283-0.448,0.687-0.448,1.159v9.961h14.474v-9.961C109.012,44.757,108.829,44.352,108.562,44.069z"/>
			<g>
				<path fill="none" d="M108.562,44.069c-0.273-0.283-0.577-0.414-0.905-0.415H95.893c-0.328,0.001-0.633,0.132-0.906,0.415
					c-0.267,0.283-0.448,0.687-0.448,1.159v9.961h14.474v-9.961C109.012,44.757,108.829,44.352,108.562,44.069z"/>
				<g>
					<path fill="none" d="M107.657,43.654H95.893c-0.328,0.001-0.633,0.132-0.906,0.415c-0.267,0.283-0.448,0.687-0.448,1.159v9.961
						h14.474v-9.961c0-0.471-0.183-0.876-0.45-1.159C108.289,43.786,107.985,43.656,107.657,43.654z"/>
					<g>
						<path fill="none" d="M107.657,43.654H95.893c-0.328,0.001-0.633,0.132-0.906,0.415c-0.267,0.283-0.448,0.687-0.448,1.159
							v9.961h14.474v-9.961c0-0.471-0.183-0.876-0.45-1.159C108.289,43.786,107.985,43.656,107.657,43.654z"/>
						<g>
							<path fill="none" d="M114.145,55.532V45.228c-0.007-3.601-2.793-6.679-6.488-6.707H95.893
								c-3.694,0.028-6.482,3.105-6.488,6.707v10.328c-1.642,0.702-2.8,2.335-2.8,4.227v13.781c0,2.527,2.067,4.594,4.594,4.594
								h21.216c2.527,0,4.594-2.066,4.594-4.594V59.783C117.008,57.867,115.82,56.219,114.145,55.532z M109.012,55.189H94.538
								v-9.961c0-0.471,0.182-0.876,0.448-1.159c0.273-0.283,0.579-0.414,0.906-0.415h11.764c0.328,0.001,0.632,0.132,0.905,0.415
								c0.267,0.283,0.45,0.687,0.45,1.159V55.189z"/>
							<g>
								<path fill="none" d="M114.145,55.532V45.228c-0.007-3.601-2.793-6.679-6.488-6.707H95.893
									c-3.694,0.028-6.482,3.105-6.488,6.707v10.328c-1.642,0.702-2.8,2.335-2.8,4.227v13.781c0,2.527,2.067,4.594,4.594,4.594
									h21.216c2.527,0,4.594-2.066,4.594-4.594V59.783C117.008,57.867,115.82,56.219,114.145,55.532z M109.012,55.189H94.538
									v-9.961c0-0.471,0.182-0.876,0.448-1.159c0.273-0.283,0.579-0.414,0.906-0.415h11.764c0.328,0.001,0.632,0.132,0.905,0.415
									c0.267,0.283,0.45,0.687,0.45,1.159V55.189z"/>
								<g>
									<path fill="none" d="M113.869,55.723V45.419c-0.007-3.601-2.793-6.679-6.488-6.707H95.617
										c-3.694,0.027-6.482,3.105-6.488,6.707v10.328c-1.642,0.702-2.8,2.335-2.8,4.227v13.781c0,2.527,2.066,4.594,4.594,4.594
										h21.216c2.527,0,4.594-2.066,4.594-4.594V59.973C116.732,58.058,115.544,56.409,113.869,55.723z M109.012,55.189H94.538
										v-9.961c0-0.471,0.182-0.876,0.448-1.159c0.273-0.283,0.579-0.414,0.906-0.415h11.764c0.328,0.001,0.632,0.132,0.905,0.415
										c0.267,0.283,0.45,0.687,0.45,1.159V55.189z"/>
									<path fill="#990000" d="M107.657,43.654H95.893c-0.328,0.001-0.633,0.132-0.906,0.415
										c-0.267,0.283-0.448,0.687-0.448,1.159v9.961h14.474v-9.961c0-0.471-0.183-0.876-0.45-1.159
										C108.289,43.786,107.985,43.656,107.657,43.654z"/>
									<path fill="#990000" d="M101.806,25.183c-18.309,0-33.156,14.847-33.156,33.156c0,18.308,14.848,33.157,33.156,33.157
										s33.157-14.849,33.157-33.157C134.963,40.03,120.115,25.183,101.806,25.183z M116.732,73.754
										c0,2.527-2.066,4.594-4.594,4.594H90.922c-2.527,0-4.594-2.066-4.594-4.594V59.973c0-1.892,1.158-3.525,2.8-4.227V45.419
										c0.006-3.601,2.794-6.679,6.488-6.707h11.764c3.695,0.027,6.481,3.105,6.488,6.707v10.304
										c1.675,0.687,2.863,2.335,2.863,4.25V73.754z"/>
								</g>
							</g>
						</g>
					</g>
				</g>
			</g>
		</g>
	</g>
	<g>
		<path d="M387.201,0.155c5.374,0,9.547,4.173,9.547,9.376c0,5.316-4.173,9.433-9.604,9.433c-5.374,0-9.661-4.116-9.661-9.433
			c0-5.203,4.287-9.376,9.661-9.376H387.201z M387.086,2.041c-4.117,0-7.204,3.373-7.204,7.49c0,4.173,3.087,7.489,7.318,7.489
			c4.115,0.058,7.146-3.315,7.146-7.489c0-4.117-3.031-7.49-7.204-7.49H387.086z M385.657,14.39h-2.173V5.072
			c0.858-0.172,2.059-0.343,3.603-0.343c1.772,0,2.572,0.286,3.258,0.743c0.515,0.401,0.915,1.144,0.915,2.002
			c0,1.086-0.801,1.886-1.943,2.229v0.114c0.914,0.286,1.429,1.029,1.715,2.287c0.285,1.429,0.457,2.001,0.686,2.287h-2.345
			c-0.285-0.343-0.457-1.144-0.744-2.23c-0.171-1.028-0.742-1.486-1.942-1.486h-1.029V14.39z M385.713,9.131h1.029
			c1.201,0,2.173-0.4,2.173-1.372c0-0.858-0.629-1.429-2.001-1.429c-0.572,0-0.972,0.057-1.201,0.114V9.131z"/>
	</g>
	<text transform="matrix(1 0 0 1 -39.5166 159.5577)" display="none"><tspan x="0" y="0" display="inline" font-family="'ArialMT'" font-size="27.0782">Płatności elektroniczne</tspan><tspan x="276.943" y="0" display="inline" fill="#990000" font-family="'ArialMT'" font-size="27.0782"> klasy e-biznes</tspan></text>
	<text transform="matrix(1 0 0 1 30.2421 170.0577)" display="none"><tspan x="0" y="0" display="inline" font-family="'ArialMT'" font-size="27.0782">Secure </tspan><tspan x="93.319" y="0" display="inline" fill="#990000" font-family="'ArialMT'" font-size="27.0782">payment platform</tspan></text>
	<text transform="matrix(1 0 0 1 12.6557 176.0577)" display="none"><tspan x="0" y="0" display="inline" font-family="'Arial-BoldMT'" font-size="38">Perfect </tspan><tspan x="139.401" y="0" display="inline" fill="#990000" font-family="'Arial-BoldMT'" font-size="38">way</tspan><tspan x="211.227" y="0" display="inline" font-family="'Arial-BoldMT'" font-size="38"> to pay</tspan></text>
	<text transform="matrix(1 0 0 1 7.5913 160.0577)" display="none"><tspan x="0" y="0" display="inline" font-family="'ArialMT'" font-size="30">Worldwide </tspan><tspan x="148.374" y="0" display="inline" fill="#990000" font-family="'ArialMT'" font-size="30">secure</tspan><tspan x="238.418" y="0" display="inline" font-family="'ArialMT'" font-size="30"> payment</tspan></text>
</g>
</svg>
