<?xml version="1.0" encoding="utf-8"?>
<!-- Generator: Adobe Illustrator 19.0.0, SVG Export Plug-In . SVG Version: 6.00 Build 0)  -->
<svg version="1.1" id="Crypto_Currency" xmlns="http://www.w3.org/2000/svg" xmlns:xlink="http://www.w3.org/1999/xlink" x="0px"
	 y="0px" viewBox="0 0 353.6 161.1" style="enable-background:new 0 0 353.6 161.1;" xml:space="preserve">
<style type="text/css">
	.st0{fill:#000000;}
</style>
<g>
	<g>
		<g>
			<path class="st0" d="M356.1,163.6h-357v-165h357V163.6z M4.1,158.6h347V3.6H4.1V158.6z"/>
		</g>
		<g>
			<path class="st0" d="M177.6,139.6c-32.3,0-58.5-26.2-58.5-58.5s26.2-58.5,58.5-58.5s58.5,26.2,58.5,58.5S209.9,139.6,177.6,139.6
				z M177.6,27.6c-29.5,0-53.5,24-53.5,53.5s24,53.5,53.5,53.5s53.5-24,53.5-53.5S207.1,27.6,177.6,27.6z"/>
		</g>
		<g>
			<g>
				<path class="st0" d="M183,104.9h-21.3v-5H183c4.5,0,8.2-3.7,8.2-8.2c0-4.5-3.7-8.2-8.2-8.2v-5c4.5,0,8.2-3.7,8.2-8.2
					c0-4.5-3.7-8.2-8.2-8.2h-21.3v-5H183c7.3,0,13.2,5.9,13.2,13.2c0,4.4-2.2,8.3-5.5,10.7c3.3,2.4,5.5,6.3,5.5,10.7
					C196.1,99,190.2,104.9,183,104.9z"/>
			</g>
			<g>
				<rect x="175.1" y="102.4" class="st0" width="5" height="5.3"/>
			</g>
			<g>
				<rect x="175.1" y="54.4" class="st0" width="5" height="5.3"/>
			</g>
			<g>
				<rect x="167" y="78.6" class="st0" width="16" height="5"/>
			</g>
			<g>
				<rect x="164.5" y="59.8" class="st0" width="5" height="42.7"/>
			</g>
		</g>
		<g>
			<rect x="233.6" y="78.6" class="st0" width="40" height="5"/>
		</g>
		<g>
			<rect x="257.6" y="62.6" class="st0" width="48" height="5"/>
		</g>
		<g>
			<rect x="241.6" y="46.6" class="st0" width="32" height="5"/>
		</g>
		<g>
			<polygon class="st0" points="275.4,50.9 271.9,47.3 288.6,30.6 321.6,30.6 321.6,35.6 290.7,35.6 			"/>
		</g>
		<g>
			<rect x="273.6" y="46.6" class="st0" width="48" height="5"/>
		</g>
		<g>
			<rect x="206.5" y="30.6" class="st0" width="51.1" height="5"/>
		</g>
		<g>
			<rect x="289.6" y="78.6" class="st0" width="32" height="5"/>
		</g>
		<g>
			<polygon class="st0" points="242.7,115.6 223.6,115.6 223.6,110.6 240.6,110.6 256.6,94.6 321.6,94.6 321.6,99.6 258.7,99.6 			
				"/>
		</g>
		<g>
			<rect x="273.6" y="110.6" class="st0" width="32" height="5"/>
		</g>
		<g>
			<rect x="257.6" y="126.6" class="st0" width="64" height="5"/>
		</g>
		<g>
			<rect x="206.5" y="126.6" class="st0" width="35.1" height="5"/>
		</g>
		<g>
			<circle class="st0" cx="241.6" cy="129.1" r="4"/>
			<path class="st0" d="M241.6,135.6c-3.6,0-6.5-2.9-6.5-6.5c0-3.6,2.9-6.5,6.5-6.5s6.5,2.9,6.5,6.5
				C248.1,132.7,245.2,135.6,241.6,135.6z M241.6,127.6c-0.8,0-1.5,0.7-1.5,1.5s0.7,1.5,1.5,1.5s1.5-0.7,1.5-1.5
				S242.5,127.6,241.6,127.6z"/>
		</g>
		<g>
			<circle class="st0" cx="257.6" cy="129.1" r="4"/>
			<path class="st0" d="M257.6,135.6c-3.6,0-6.5-2.9-6.5-6.5c0-3.6,2.9-6.5,6.5-6.5c3.6,0,6.5,2.9,6.5,6.5
				C264.1,132.7,261.2,135.6,257.6,135.6z M257.6,127.6c-0.8,0-1.5,0.7-1.5,1.5s0.7,1.5,1.5,1.5s1.5-0.7,1.5-1.5
				S258.5,127.6,257.6,127.6z"/>
		</g>
		<g>
			<circle class="st0" cx="321.6" cy="129.1" r="4"/>
			<path class="st0" d="M321.6,135.6c-3.6,0-6.5-2.9-6.5-6.5c0-3.6,2.9-6.5,6.5-6.5s6.5,2.9,6.5,6.5
				C328.1,132.7,325.2,135.6,321.6,135.6z M321.6,127.6c-0.8,0-1.5,0.7-1.5,1.5s0.7,1.5,1.5,1.5s1.5-0.7,1.5-1.5
				S322.5,127.6,321.6,127.6z"/>
		</g>
		<g>
			<circle class="st0" cx="305.6" cy="113.1" r="4"/>
			<path class="st0" d="M305.6,119.6c-3.6,0-6.5-2.9-6.5-6.5s2.9-6.5,6.5-6.5s6.5,2.9,6.5,6.5S309.2,119.6,305.6,119.6z
				 M305.6,111.6c-0.8,0-1.5,0.7-1.5,1.5s0.7,1.5,1.5,1.5s1.5-0.7,1.5-1.5S306.5,111.6,305.6,111.6z"/>
		</g>
		<g>
			<circle class="st0" cx="273.6" cy="113.1" r="4"/>
			<path class="st0" d="M273.6,119.6c-3.6,0-6.5-2.9-6.5-6.5s2.9-6.5,6.5-6.5s6.5,2.9,6.5,6.5S277.2,119.6,273.6,119.6z
				 M273.6,111.6c-0.8,0-1.5,0.7-1.5,1.5s0.7,1.5,1.5,1.5s1.5-0.7,1.5-1.5S274.5,111.6,273.6,111.6z"/>
		</g>
		<g>
			<circle class="st0" cx="321.6" cy="97.1" r="4"/>
			<path class="st0" d="M321.6,103.6c-3.6,0-6.5-2.9-6.5-6.5s2.9-6.5,6.5-6.5s6.5,2.9,6.5,6.5S325.2,103.6,321.6,103.6z M321.6,95.6
				c-0.8,0-1.5,0.7-1.5,1.5s0.7,1.5,1.5,1.5s1.5-0.7,1.5-1.5S322.5,95.6,321.6,95.6z"/>
		</g>
		<g>
			<circle class="st0" cx="321.6" cy="81.1" r="4"/>
			<path class="st0" d="M321.6,87.6c-3.6,0-6.5-2.9-6.5-6.5s2.9-6.5,6.5-6.5s6.5,2.9,6.5,6.5S325.2,87.6,321.6,87.6z M321.6,79.6
				c-0.8,0-1.5,0.7-1.5,1.5s0.7,1.5,1.5,1.5s1.5-0.7,1.5-1.5S322.5,79.6,321.6,79.6z"/>
		</g>
		<g>
			<circle class="st0" cx="321.6" cy="49.1" r="4"/>
			<path class="st0" d="M321.6,55.6c-3.6,0-6.5-2.9-6.5-6.5s2.9-6.5,6.5-6.5s6.5,2.9,6.5,6.5S325.2,55.6,321.6,55.6z M321.6,47.6
				c-0.8,0-1.5,0.7-1.5,1.5s0.7,1.5,1.5,1.5s1.5-0.7,1.5-1.5S322.5,47.6,321.6,47.6z"/>
		</g>
		<g>
			<circle class="st0" cx="321.6" cy="33.1" r="4"/>
			<path class="st0" d="M321.6,39.6c-3.6,0-6.5-2.9-6.5-6.5s2.9-6.5,6.5-6.5s6.5,2.9,6.5,6.5S325.2,39.6,321.6,39.6z M321.6,31.6
				c-0.8,0-1.5,0.7-1.5,1.5s0.7,1.5,1.5,1.5s1.5-0.7,1.5-1.5S322.5,31.6,321.6,31.6z"/>
		</g>
		<g>
			<circle class="st0" cx="257.6" cy="33.1" r="4"/>
			<path class="st0" d="M257.6,39.6c-3.6,0-6.5-2.9-6.5-6.5s2.9-6.5,6.5-6.5c3.6,0,6.5,2.9,6.5,6.5S261.2,39.6,257.6,39.6z
				 M257.6,31.6c-0.8,0-1.5,0.7-1.5,1.5s0.7,1.5,1.5,1.5s1.5-0.7,1.5-1.5S258.5,31.6,257.6,31.6z"/>
		</g>
		<g>
			<circle class="st0" cx="241.6" cy="49.1" r="4"/>
			<path class="st0" d="M241.6,55.6c-3.6,0-6.5-2.9-6.5-6.5s2.9-6.5,6.5-6.5s6.5,2.9,6.5,6.5S245.2,55.6,241.6,55.6z M241.6,47.6
				c-0.8,0-1.5,0.7-1.5,1.5s0.7,1.5,1.5,1.5s1.5-0.7,1.5-1.5S242.5,47.6,241.6,47.6z"/>
		</g>
		<g>
			<circle class="st0" cx="257.6" cy="65.1" r="4"/>
			<path class="st0" d="M257.6,71.6c-3.6,0-6.5-2.9-6.5-6.5c0-3.6,2.9-6.5,6.5-6.5c3.6,0,6.5,2.9,6.5,6.5
				C264.1,68.7,261.2,71.6,257.6,71.6z M257.6,63.6c-0.8,0-1.5,0.7-1.5,1.5s0.7,1.5,1.5,1.5s1.5-0.7,1.5-1.5S258.5,63.6,257.6,63.6z
				"/>
		</g>
		<g>
			<circle class="st0" cx="305.6" cy="65.1" r="4"/>
			<path class="st0" d="M305.6,71.6c-3.6,0-6.5-2.9-6.5-6.5c0-3.6,2.9-6.5,6.5-6.5s6.5,2.9,6.5,6.5
				C312.1,68.7,309.2,71.6,305.6,71.6z M305.6,63.6c-0.8,0-1.5,0.7-1.5,1.5s0.7,1.5,1.5,1.5s1.5-0.7,1.5-1.5S306.5,63.6,305.6,63.6z
				"/>
		</g>
		<g>
			<circle class="st0" cx="289.6" cy="81.1" r="4"/>
			<path class="st0" d="M289.6,87.6c-3.6,0-6.5-2.9-6.5-6.5s2.9-6.5,6.5-6.5s6.5,2.9,6.5,6.5S293.2,87.6,289.6,87.6z M289.6,79.6
				c-0.8,0-1.5,0.7-1.5,1.5s0.7,1.5,1.5,1.5s1.5-0.7,1.5-1.5S290.5,79.6,289.6,79.6z"/>
		</g>
		<g>
			<circle class="st0" cx="273.6" cy="81.1" r="4"/>
			<path class="st0" d="M273.6,87.6c-3.6,0-6.5-2.9-6.5-6.5s2.9-6.5,6.5-6.5s6.5,2.9,6.5,6.5S277.2,87.6,273.6,87.6z M273.6,79.6
				c-0.8,0-1.5,0.7-1.5,1.5s0.7,1.5,1.5,1.5s1.5-0.7,1.5-1.5S274.5,79.6,273.6,79.6z"/>
		</g>
		<g>
			<g>
				<rect x="81.6" y="78.6" class="st0" width="40" height="5"/>
			</g>
			<g>
				<rect x="49.6" y="94.6" class="st0" width="48" height="5"/>
			</g>
			<g>
				<rect x="81.6" y="110.6" class="st0" width="32" height="5"/>
			</g>
			<g>
				<polygon class="st0" points="66.7,131.6 33.6,131.6 33.6,126.6 64.6,126.6 79.9,111.3 83.4,114.9 				"/>
			</g>
			<g>
				<rect x="33.6" y="110.6" class="st0" width="48" height="5"/>
			</g>
			<g>
				<rect x="97.6" y="126.6" class="st0" width="51.1" height="5"/>
			</g>
			<g>
				<rect x="33.6" y="78.6" class="st0" width="32" height="5"/>
			</g>
			<g>
				<polygon class="st0" points="98.7,67.6 33.6,67.6 33.6,62.6 96.6,62.6 112.6,46.6 131.7,46.6 131.7,51.6 114.7,51.6 				"/>
			</g>
			<g>
				<rect x="49.6" y="46.6" class="st0" width="32" height="5"/>
			</g>
			<g>
				<rect x="33.6" y="30.6" class="st0" width="64" height="5"/>
			</g>
			<g>
				<rect x="113.6" y="30.6" class="st0" width="35.1" height="5"/>
			</g>
			<g>
				<circle class="st0" cx="113.6" cy="33.1" r="4"/>
				<path class="st0" d="M113.6,39.6c-3.6,0-6.5-2.9-6.5-6.5s2.9-6.5,6.5-6.5s6.5,2.9,6.5,6.5S117.2,39.6,113.6,39.6z M113.6,31.6
					c-0.8,0-1.5,0.7-1.5,1.5s0.7,1.5,1.5,1.5s1.5-0.7,1.5-1.5S114.5,31.6,113.6,31.6z"/>
			</g>
			<g>
				<circle class="st0" cx="97.6" cy="33.1" r="4"/>
				<path class="st0" d="M97.6,39.6c-3.6,0-6.5-2.9-6.5-6.5s2.9-6.5,6.5-6.5s6.5,2.9,6.5,6.5S101.2,39.6,97.6,39.6z M97.6,31.6
					c-0.8,0-1.5,0.7-1.5,1.5s0.7,1.5,1.5,1.5s1.5-0.7,1.5-1.5S98.5,31.6,97.6,31.6z"/>
			</g>
			<g>
				<circle class="st0" cx="33.6" cy="33.1" r="4"/>
				<path class="st0" d="M33.6,39.6c-3.6,0-6.5-2.9-6.5-6.5s2.9-6.5,6.5-6.5s6.5,2.9,6.5,6.5S37.2,39.6,33.6,39.6z M33.6,31.6
					c-0.8,0-1.5,0.7-1.5,1.5s0.7,1.5,1.5,1.5s1.5-0.7,1.5-1.5S34.5,31.6,33.6,31.6z"/>
			</g>
			<g>
				<circle class="st0" cx="49.6" cy="49.1" r="4"/>
				<path class="st0" d="M49.6,55.6c-3.6,0-6.5-2.9-6.5-6.5s2.9-6.5,6.5-6.5s6.5,2.9,6.5,6.5S53.2,55.6,49.6,55.6z M49.6,47.6
					c-0.8,0-1.5,0.7-1.5,1.5s0.7,1.5,1.5,1.5s1.5-0.7,1.5-1.5S50.5,47.6,49.6,47.6z"/>
			</g>
			<g>
				<circle class="st0" cx="81.6" cy="49.1" r="4"/>
				<path class="st0" d="M81.6,55.6c-3.6,0-6.5-2.9-6.5-6.5s2.9-6.5,6.5-6.5s6.5,2.9,6.5,6.5S85.2,55.6,81.6,55.6z M81.6,47.6
					c-0.8,0-1.5,0.7-1.5,1.5s0.7,1.5,1.5,1.5s1.5-0.7,1.5-1.5S82.5,47.6,81.6,47.6z"/>
			</g>
			<g>
				<circle class="st0" cx="33.6" cy="65.1" r="4"/>
				<path class="st0" d="M33.6,71.6c-3.6,0-6.5-2.9-6.5-6.5c0-3.6,2.9-6.5,6.5-6.5s6.5,2.9,6.5,6.5C40.1,68.7,37.2,71.6,33.6,71.6z
					 M33.6,63.6c-0.8,0-1.5,0.7-1.5,1.5s0.7,1.5,1.5,1.5s1.5-0.7,1.5-1.5S34.5,63.6,33.6,63.6z"/>
			</g>
			<g>
				<circle class="st0" cx="33.6" cy="81.1" r="4"/>
				<path class="st0" d="M33.6,87.6c-3.6,0-6.5-2.9-6.5-6.5s2.9-6.5,6.5-6.5s6.5,2.9,6.5,6.5S37.2,87.6,33.6,87.6z M33.6,79.6
					c-0.8,0-1.5,0.7-1.5,1.5s0.7,1.5,1.5,1.5s1.5-0.7,1.5-1.5S34.5,79.6,33.6,79.6z"/>
			</g>
			<g>
				<circle class="st0" cx="33.6" cy="113.1" r="4"/>
				<path class="st0" d="M33.6,119.6c-3.6,0-6.5-2.9-6.5-6.5s2.9-6.5,6.5-6.5s6.5,2.9,6.5,6.5S37.2,119.6,33.6,119.6z M33.6,111.6
					c-0.8,0-1.5,0.7-1.5,1.5s0.7,1.5,1.5,1.5s1.5-0.7,1.5-1.5S34.5,111.6,33.6,111.6z"/>
			</g>
			<g>
				<circle class="st0" cx="33.6" cy="129.1" r="4"/>
				<path class="st0" d="M33.6,135.6c-3.6,0-6.5-2.9-6.5-6.5c0-3.6,2.9-6.5,6.5-6.5s6.5,2.9,6.5,6.5
					C40.1,132.7,37.2,135.6,33.6,135.6z M33.6,127.6c-0.8,0-1.5,0.7-1.5,1.5s0.7,1.5,1.5,1.5s1.5-0.7,1.5-1.5S34.5,127.6,33.6,127.6
					z"/>
			</g>
			<g>
				<circle class="st0" cx="97.6" cy="129.1" r="4"/>
				<path class="st0" d="M97.6,135.6c-3.6,0-6.5-2.9-6.5-6.5c0-3.6,2.9-6.5,6.5-6.5s6.5,2.9,6.5,6.5
					C104.1,132.7,101.2,135.6,97.6,135.6z M97.6,127.6c-0.8,0-1.5,0.7-1.5,1.5s0.7,1.5,1.5,1.5s1.5-0.7,1.5-1.5
					S98.5,127.6,97.6,127.6z"/>
			</g>
			<g>
				<circle class="st0" cx="113.6" cy="113.1" r="4"/>
				<path class="st0" d="M113.6,119.6c-3.6,0-6.5-2.9-6.5-6.5s2.9-6.5,6.5-6.5s6.5,2.9,6.5,6.5S117.2,119.6,113.6,119.6z
					 M113.6,111.6c-0.8,0-1.5,0.7-1.5,1.5s0.7,1.5,1.5,1.5s1.5-0.7,1.5-1.5S114.5,111.6,113.6,111.6z"/>
			</g>
			<g>
				<circle class="st0" cx="97.6" cy="97.1" r="4"/>
				<path class="st0" d="M97.6,103.6c-3.6,0-6.5-2.9-6.5-6.5s2.9-6.5,6.5-6.5s6.5,2.9,6.5,6.5S101.2,103.6,97.6,103.6z M97.6,95.6
					c-0.8,0-1.5,0.7-1.5,1.5s0.7,1.5,1.5,1.5s1.5-0.7,1.5-1.5S98.5,95.6,97.6,95.6z"/>
			</g>
			<g>
				<circle class="st0" cx="49.6" cy="97.1" r="4"/>
				<path class="st0" d="M49.6,103.6c-3.6,0-6.5-2.9-6.5-6.5s2.9-6.5,6.5-6.5s6.5,2.9,6.5,6.5S53.2,103.6,49.6,103.6z M49.6,95.6
					c-0.8,0-1.5,0.7-1.5,1.5s0.7,1.5,1.5,1.5s1.5-0.7,1.5-1.5S50.5,95.6,49.6,95.6z"/>
			</g>
			<g>
				<circle class="st0" cx="65.6" cy="81.1" r="4"/>
				<path class="st0" d="M65.6,87.6c-3.6,0-6.5-2.9-6.5-6.5s2.9-6.5,6.5-6.5c3.6,0,6.5,2.9,6.5,6.5S69.2,87.6,65.6,87.6z M65.6,79.6
					c-0.8,0-1.5,0.7-1.5,1.5s0.7,1.5,1.5,1.5s1.5-0.7,1.5-1.5S66.5,79.6,65.6,79.6z"/>
			</g>
			<g>
				<circle class="st0" cx="81.6" cy="81.1" r="4"/>
				<path class="st0" d="M81.6,87.6c-3.6,0-6.5-2.9-6.5-6.5s2.9-6.5,6.5-6.5s6.5,2.9,6.5,6.5S85.2,87.6,81.6,87.6z M81.6,79.6
					c-0.8,0-1.5,0.7-1.5,1.5s0.7,1.5,1.5,1.5s1.5-0.7,1.5-1.5S82.5,79.6,81.6,79.6z"/>
			</g>
		</g>
	</g>
</g>
</svg>
