<?xml version="1.0" encoding="utf-8"?>
<!-- Generator: Adobe Illustrator 19.1.1, SVG Export Plug-In . SVG Version: 6.00 Build 0)  -->
<svg version="1.1" id="Bonus_Icons" xmlns="http://www.w3.org/2000/svg" xmlns:xlink="http://www.w3.org/1999/xlink" x="0px"
	 y="0px" viewBox="-200 332.4 193.8 176.5" style="enable-background:new -200 332.4 193.8 176.5;" xml:space="preserve">
<style type="text/css">
	.st0{display:none;}
</style>
<g>
	<g>
		<g>
			<g>
				<g>
					<rect x="-86.7" y="466.3" width="6" height="31.9"/>
				</g>
			</g>
			<g>
				<g>
					<rect x="-125.1" y="466.3" width="6" height="31.9"/>
				</g>
			</g>
		</g>
		<g>
			<g>
				<path d="M-4.9,469.7h-196V331.4h196V469.7z M-196.9,465.7h188V335.4h-188V465.7z"/>
			</g>
			<g>
				<path d="M-6.4,468.3h-193V332.9h193V468.3z M-195.4,464.3h185V336.9h-185V464.3z"/>
			</g>
		</g>
		<g>
			<g>
				<path d="M-15,440.5h-175.8v-99H-15V440.5z M-187.8,437.5H-18v-93h-169.8V437.5z"/>
			</g>
			<g>
				<path d="M-13.5,442h-178.8V340h178.8V442z M-189.3,439h172.8v-96v96H-189.3z M-186.3,436h166.8v-90h-166.8V436z"/>
			</g>
		</g>
		<g>
			<g>
				<path d="M-73.1,507.2h-59.6v-11.6h59.6V507.2z M-130.7,505.2h55.6v-7.6h-55.6V505.2z"/>
			</g>
			<g>
				<path d="M-71.6,508.7h-62.6v-14.6h62.6V508.7z M-132.2,506.7h58.6v-10.6h-58.6V506.7z M-74.6,505.7h-56.6v-8.6h56.6V505.7z
					 M-129.2,503.7h52.6v-4.6h-52.6V503.7z"/>
			</g>
		</g>
		<g>
			<g>
				<path d="M-102.9,460.3l-6.9-6.9l6.9-6.9l6.9,6.9L-102.9,460.3z M-105.6,453.4l2.7,2.7l2.7-2.7l-2.7-2.7L-105.6,453.4z"/>
			</g>
			<g>
				<g>
					<path class="st0" d="M-102.9,460.4l-6.9-6.9l6.9-6.9l6.9,6.9L-102.9,460.4z M-105.6,453.4l2.7,2.7l2.7-2.7l-2.7-2.7
						L-105.6,453.4z"/>
				</g>
				<g>
					<path d="M-102.9,462.5l-9-9l9-9l9,9L-102.9,462.5z M-102.9,458.2L-102.9,458.2l2.5-2.5L-102.9,458.2z M-107.7,453.4l2.9,2.9
						L-107.7,453.4z M-103.5,453.4l0.6,0.6l0.6-0.6l-0.6-0.6L-103.5,453.4z M-102.9,448.6l1.4,1.4L-102.9,448.6z"/>
				</g>
			</g>
		</g>
	</g>
</g>
<g>
	<g>
		<g>
			<g>
				<g>
					<rect x="-97.1" y="400.8" width="3" height="2.5"/>
				</g>
			</g>
			<g>
				<g>
					<path d="M-102.2,410.6c-4.1,0-7.6-3.1-8.1-7.1l3-0.4c0.3,2.6,2.5,4.5,5.1,4.5c0.1,0,0.2,0,0.3,0h0.2c0.2,0,0.3,0,0.5-0.1
						c2.3-0.4,3.9-2.2,4.2-4.4l3,0.4c-0.4,3.5-3.1,6.3-6.6,7h-0.1c-0.2,0-0.4,0.1-0.6,0.1c-0.1,0-0.1,0-0.2,0h-0.1
						C-101.9,410.6-102.1,410.6-102.2,410.6z"/>
				</g>
			</g>
			<g>
				<g>
					<rect x="-110.4" y="400.8" width="3" height="2.5"/>
				</g>
			</g>
			<g>
				<g>
					<path d="M-102.2,405.9c-2.9,0-5.7-1.5-7.8-4.1l2.3-1.9c1.5,1.9,3.5,3,5.5,3s4-1.1,5.5-3l2.3,1.9
						C-96.5,404.4-99.3,405.9-102.2,405.9z"/>
				</g>
			</g>
			<g>
				<g>
					<path d="M-94.4,401.8l-2.3-1.9c1.4-1.8,2.4-4.2,2.8-6.8l0.2-1.4l1.4,0.2c0.1,0,0.2-0.1,0.2-0.2v-3.3l3-0.1v3.4
						c0,1.4-0.9,2.5-2.1,3C-91.7,397.3-92.8,399.8-94.4,401.8z"/>
				</g>
			</g>
			<g>
				<g>
					<path d="M-110.1,401.8c-1.6-2-2.7-4.4-3.3-7.2c-1.2-0.4-2.1-1.6-2.1-3v-3.4h3v3.4c0,0.1,0.1,0.2,0.2,0.2l1.4-0.2l0.2,1.4
						c0.4,2.6,1.4,5,2.8,6.8L-110.1,401.8z"/>
				</g>
			</g>
			<g>
				<g>
					<path d="M-89.1,388.2h-3v-6.6c0-4.7-4.6-8.5-10.2-8.5s-10.1,3.8-10.2,8.5v6.6h-3v-6.5c0-6.4,5.9-11.6,13.2-11.6
						c6.6,0,12.2,4.4,13,10h0.1L-89.1,388.2z"/>
				</g>
			</g>
			<g>
				<g>
					<path d="M-90.6,389.7H-92l-0.1-1.4c0-0.1-0.1-0.2-0.2-0.2h-1.5v-3.2c0-0.1-0.1-0.2-0.2-0.2h-1c-1,0-2-0.3-2.8-0.9
						c-0.8,0.6-1.8,0.9-2.8,0.9h-10c-0.1,0-0.2,0.1-0.2,0.2v3.2h-1.5c-0.1,0-0.2,0.1-0.2,0.2l-0.1,1.4h-1.4v-1.5l-1.5-0.1
						c0-1.2,0.7-2.1,1.7-2.7v-0.5c0-1.7,1.4-3.2,3.2-3.2h10c0.6,0,1.2-0.3,1.5-0.8l1.3-1.9l1.3,1.9c0.3,0.5,0.9,0.8,1.5,0.8h1.1
						c1.7,0,3.2,1.4,3.2,3.2v0.5c1,0.5,1.6,1.5,1.7,2.7l-1.5,0.1L-90.6,389.7z"/>
				</g>
			</g>
			<g>
				<g>
					<polygon points="-108.5,404.8 -108.8,403.3 -109.4,401.9 -108.9,403.2 -109.1,401.8 -108.9,403.2 -108.3,404.7 					"/>
				</g>
			</g>
			<g>
				<g>
					<polygon points="-95.4,405 -96.1,404.7 -95.6,403.4 -95.1,401.9 -94.2,402.3 					"/>
				</g>
			</g>
			<g>
				<g>
					<polygon points="-95.9,404.8 -96.1,404.7 -95.7,403.6 -95.4,401.8 -95.1,401.9 -95.5,403.1 -95.8,404.8 -95.8,404.5 					"/>
				</g>
			</g>
			<g>
				<g>
					<polygon points="-108.6,404.8 -108.8,403.6 -108.9,403.3 -108.9,403.3 -108.9,403.3 -110.3,403.3 -108.9,403.3 -109.4,401.9 
						-109.4,401.9 -108.9,403.3 -109.4,401.9 -109.1,401.8 -107.3,401.5 -107.3,403.3 -108.8,403.3 -108.3,404.7 -108.8,403.6 					
						"/>
				</g>
			</g>
			<g>
				<g>
					<polygon points="-109.1,405 -110.3,402.3 -109.2,401.9 -108.8,403.4 -108.2,404.7 					"/>
				</g>
			</g>
			<g>
				<g>
					<path d="M-123,411.9l-2.8-1.2l0.1-0.2c0.1-0.1,0.1-0.2,0.2-0.3c0-0.1,0.1-0.1,0.1-0.2c0-0.1,0.1-0.1,0.2-0.2l0.1-0.2
						c0.1-0.1,0.1-0.2,0.2-0.2l0.2-0.2c0,0,0.1-0.1,0.2-0.2l0.2-0.2c0.1-0.1,0.1-0.1,0.2-0.2l0.4-0.3c0.1-0.1,0.2-0.1,0.2-0.2
						l0.2-0.1c0.1-0.1,0.2-0.1,0.3-0.1l1.9-0.9l0,0l11.6-5.2l0.4-0.1l0.5,3l-0.2-1.5l0.9,1.2l-0.3,0.2l-14,6.3L-123,411.9z"/>
				</g>
			</g>
			<g>
				<g>
					<path d="M-81.5,411.8l0.3-0.2L-81.5,411.8l0.3-0.2l1-0.6l-1.4,0.6l-0.7-0.9l-0.3-0.2l-12.8-5.6l1.2-2.7l12.8,5.6
						c0.1,0,0.2,0.1,0.2,0.1l0.2,0.1c0.1,0.1,0.2,0.1,0.2,0.1l0.2,0.1c0.1,0.1,0.2,0.1,0.2,0.2c0,0,0.1,0.1,0.2,0.2
						c0,0,0.1,0.1,0.2,0.2c0.1,0.1,0.1,0.1,0.2,0.2l0.2,0.2c0,0,0.1,0.1,0.1,0.2l0.2,0.3c0,0,0.1,0.1,0.1,0.2l0.2,0.3
						c0,0.1,0.1,0.2,0.1,0.2c0.1,0.2,0.1,0.2,0.1,0.3L-81.5,411.8z"/>
				</g>
			</g>
		</g>
		<g>
			<g>
				<path d="M-102.5,422.7c-17,0-30.8-13.8-30.8-30.8s13.8-30.8,30.8-30.8s30.8,13.8,30.8,30.8S-85.5,422.7-102.5,422.7z
					 M-102.5,364.1c-15.3,0-27.8,12.5-27.8,27.8c0,15.3,12.5,27.8,27.8,27.8s27.8-12.5,27.8-27.8
					C-74.7,376.6-87.2,364.1-102.5,364.1z"/>
			</g>
		</g>
	</g>
</g>
</svg>
