<?xml version="1.0" encoding="utf-8"?>
<!-- Generator: Adobe Illustrator 19.0.0, SVG Export Plug-In . SVG Version: 6.00 Build 0)  -->
<svg version="1.1" id="Слой_1" xmlns="http://www.w3.org/2000/svg" xmlns:xlink="http://www.w3.org/1999/xlink" x="0px" y="0px"
	 viewBox="-164 42.3 24.5 24.3" style="enable-background:new -164 42.3 24.5 24.3;" xml:space="preserve">
<path d="M-152,63.5c-5.1,0-9.1-4.1-9.1-9.2s4.1-9.2,9.1-9.2s9.1,4.1,9.1,9.2S-146.9,63.5-152,63.5 M-152,42.3
	c-6.6,0-11.9,5.4-11.9,12s5.3,12,11.9,12s11.9-5.4,11.9-12S-145.4,42.3-152,42.3 M-153,57.7h2.2V56c0-0.4,0.2-0.9,0.8-1.3
	s2.2-1.1,2.2-3.1c0-2-1.7-3.4-3.1-3.7c-1.4-0.3-2.9-0.1-4,1.1c-1,1-1.2,1.9-1.2,3.8h2.2v-0.5c0-1,0.1-2,1.5-2.3
	c0.8-0.1,1.5,0.1,1.9,0.5c0.5,0.5,0.5,1.5-0.3,2.1l-1.2,0.8c-0.7,0.5-0.9,1-0.9,1.7V57.7z M-153,58.6h2.2v2.2h-2.2V58.6z"/>
</svg>
