<?xml version="1.0" encoding="utf-8"?>
<!-- Generator: Adobe Illustrator 19.0.0, SVG Export Plug-In . SVG Version: 6.00 Build 0)  -->
<svg version="1.1" id="Слой_1" xmlns:sketch="http://www.bohemiancoding.com/sketch/ns"
	 xmlns="http://www.w3.org/2000/svg" xmlns:xlink="http://www.w3.org/1999/xlink" x="0px" y="0px" viewBox="-410 288.3 21 20"
	 style="enable-background:new -410 288.3 21 20;" xml:space="preserve">
<style type="text/css">
	.st0{fill:#FFFFFF;}
	.st1{fill:#343558;}
</style>
<g>
	<path id="path-1" class="st0" d="M-409.6,307.8h4.3V295h-4.3V307.8L-409.6,307.8z M-407.5,288.8c-1.5,0-2.4,1-2.4,2.2
		c0,1.2,0.9,2.2,2.4,2.2h0c1.5,0,2.4-1,2.4-2.2C-405.1,289.7-406,288.8-407.5,288.8L-407.5,288.8z M-389.9,300.5v7.4h-4.3v-6.9
		c0-1.7-0.6-2.9-2.2-2.9c-1.2,0-1.9,0.8-2.2,1.6c-0.1,0.3-0.1,0.7-0.1,1v7.2h-4.3c0,0,0.1-11.7,0-12.9h4.3v1.8c0,0,0,0,0,0h0v0
		c0.6-0.9,1.6-2.1,3.9-2.1C-392,294.7-389.9,296.5-389.9,300.5L-389.9,300.5z"/>
</g>
<title>in</title>
<desc>Created with Sketch.</desc>
<g id="Page-1" sketch:type="MSPage">
	<g id="in" sketch:type="MSShapeGroup">
		<path id="path-1_1_" class="st1" d="M-409.6,307.8h4.3V295h-4.3V307.8L-409.6,307.8z M-407.5,288.8c-1.5,0-2.4,1-2.4,2.2
			c0,1.2,0.9,2.2,2.4,2.2h0c1.5,0,2.4-1,2.4-2.2C-405.1,289.7-406,288.8-407.5,288.8L-407.5,288.8z M-389.9,300.5v7.4h-4.3v-6.9
			c0-1.7-0.6-2.9-2.2-2.9c-1.2,0-1.9,0.8-2.2,1.6c-0.1,0.3-0.1,0.7-0.1,1v7.2h-4.3c0,0,0.1-11.7,0-12.9h4.3v1.8c0,0,0,0,0,0h0v0
			c0.6-0.9,1.6-2.1,3.9-2.1C-392,294.7-389.9,296.5-389.9,300.5L-389.9,300.5z"/>
	</g>
</g>
</svg>
