<?xml version="1.0" encoding="utf-8"?>
<!-- Generator: Adobe Illustrator 19.0.0, SVG Export Plug-In . SVG Version: 6.00 Build 0)  -->
<svg version="1.1" id="Crypto_Currency" xmlns="http://www.w3.org/2000/svg" xmlns:xlink="http://www.w3.org/1999/xlink" x="0px"
	 y="0px" viewBox="0 0 278.7 198.7" style="enable-background:new 0 0 278.7 198.7;" xml:space="preserve">
<style type="text/css">
	.st0{fill:#000000;}
</style>
<g>
	<g>
		<g>
			<path class="st0" d="M262.5,197.9H20c-10.2,0-18.5-8.3-18.5-18.5v-160C1.5,9.2,9.8,0.9,20,0.9h242.5V197.9z M20,5.9
				C12.5,5.9,6.5,12,6.5,19.4v160c0,7.4,6.1,13.5,13.5,13.5h237.5V5.9H20z"/>
		</g>
		<g>
			<path class="st0" d="M20,37.9c-10.2,0-18.5-8.3-18.5-18.5h5c0,7.4,6.1,13.5,13.5,13.5V37.9z"/>
		</g>
		<g>
			<rect x="241.5" y="51.4" class="st0" width="5" height="128"/>
		</g>
		<g>
			<rect x="20" y="32.9" class="st0" width="240" height="5"/>
		</g>
		<g>
			<path class="st0" d="M278.5,133.9H196c-10.2,0-18.5-8.3-18.5-18.5s8.3-18.5,18.5-18.5h82.5V133.9z M196,101.9
				c-7.4,0-13.5,6.1-13.5,13.5s6.1,13.5,13.5,13.5h77.5v-27H196z"/>
		</g>
		<g>
			<path class="st0" d="M196,125.9c-5.8,0-10.5-4.7-10.5-10.5s4.7-10.5,10.5-10.5s10.5,4.7,10.5,10.5S201.8,125.9,196,125.9z
				 M196,109.9c-3,0-5.5,2.5-5.5,5.5s2.5,5.5,5.5,5.5s5.5-2.5,5.5-5.5S199,109.9,196,109.9z"/>
		</g>
		<g>
			<rect x="20" y="8.9" class="st0" width="240" height="5"/>
		</g>
		<g>
			<rect x="20" y="24.9" class="st0" width="240" height="5"/>
		</g>
		<g>
			<path class="st0" d="M20.2,29.9c-5.8,0-10.5-4.7-10.5-10.5S14.4,8.9,20.2,8.9v5c-3,0-5.5,2.5-5.5,5.5s2.5,5.5,5.5,5.5V29.9z"/>
		</g>
	</g>
</g>
</svg>
